<svg xmlns="http://www.w3.org/2000/svg" width="22" height="16"><path d="M20.882 1.449C20.124.489 18.726.1 16.054.1h-9.7C3.625.1 2.2.515 1.448 1.536.712 2.532.712 4 .712 6.026V9.9c0 3.932.873 5.928 5.645 5.928h9.7c2.316 0 3.6-.345 4.43-1.191.85-.872 1.213-2.289 1.213-4.737V6.026c0-2.139-.057-3.614-.818-4.577zM14.186 8.5l-4.4 2.449a.639.639 0 0 1-.664-.023.728.728 0 0 1-.326-.615V5.423a.734.734 0 0 1 .325-.617.643.643 0 0 1 .664-.023l4.4 2.434a.743.743 0 0 1 .001 1.283z" fill-rule="evenodd"/></svg>