<svg xmlns="http://www.w3.org/2000/svg" xmlns:xlink="http://www.w3.org/1999/xlink"><symbol id="icon-arrow-top" viewBox="0 0 26 26"><path d="M22.7 9.3l-9-9c-.2-.2-.4-.3-.7-.3s-.5.1-.7.3l-9 9c-.2.2-.3.4-.3.7s.1.5.3.7l1.4 1.4c.4.4 1 .4 1.4 0l4-4c.3-.3.9-.1.9.4V25c0 .6.4 1 1 1h2c.6 0 1-.4 1-1V8.4c0-.4.5-.7.9-.4l4 4c.4.4 1 .4 1.4 0l1.4-1.4c.2-.2.3-.4.3-.7 0-.2-.1-.4-.3-.6z"/></symbol><symbol id="icon-facebook" viewBox="0 0 96 96"><path d="M72.089.02L59.624 0C45.62 0 36.57 9.285 36.57 23.656v10.907H24.037a1.96 1.96 0 0 0-1.96 1.961v15.803a1.96 1.96 0 0 0 1.96 1.96H36.57v39.876a1.96 1.96 0 0 0 1.96 1.96h16.352a1.96 1.96 0 0 0 1.96-1.96V54.287h14.654a1.96 1.96 0 0 0 1.96-1.96l.006-15.803a1.963 1.963 0 0 0-1.961-1.961H56.842v-9.246c0-4.444 1.059-6.7 6.848-6.7l8.397-.003a1.96 1.96 0 0 0 1.959-1.96V1.98A1.96 1.96 0 0 0 72.089.02z" fill-rule="evenodd"/></symbol><symbol id="icon-telegram" viewBox="0 0 300 300"><path d="M5.299 144.645l69.126 25.8 26.756 86.047c1.712 5.511 8.451 7.548 12.924 3.891l38.532-31.412a11.496 11.496 0 0 1 14.013-.391l69.498 50.457c4.785 3.478 11.564.856 12.764-4.926L299.823 29.22c1.31-6.316-4.896-11.585-10.91-9.259L5.218 129.402c-7.001 2.7-6.94 12.612.081 15.243zm91.57 12.066l135.098-83.207c2.428-1.491 4.926 1.792 2.841 3.726L123.313 180.87a23.112 23.112 0 0 0-7.163 13.829l-3.798 28.146c-.503 3.758-5.782 4.131-6.819.494l-14.607-51.325c-1.673-5.854.765-12.107 5.943-15.303z" fill-rule="evenodd"/></symbol><symbol id="icon-youtube"><path d="M20.882 1.449C20.124.489 18.726.1 16.054.1h-9.7C3.625.1 2.2.515 1.448 1.536.712 2.532.712 4 .712 6.026V9.9c0 3.932.873 5.928 5.645 5.928h9.7c2.316 0 3.6-.345 4.43-1.191.85-.872 1.213-2.289 1.213-4.737V6.026c0-2.139-.057-3.614-.818-4.577zM14.186 8.5l-4.4 2.449a.639.639 0 0 1-.664-.023.728.728 0 0 1-.326-.615V5.423a.734.734 0 0 1 .325-.617.643.643 0 0 1 .664-.023l4.4 2.434a.743.743 0 0 1 .001 1.283z" fill-rule="evenodd"/></symbol></svg>